<?xml version="1.0" encoding="UTF-8" standalone="no"?>
<svg
   enable-background="new 0 0 32 32"
   id="Filled_Outline"
   version="1.1"
   viewBox="0 0 32 32"
   xml:space="preserve"
   sodipodi:docname="7795629_weather_day_sun_icon.svg"
   xmlns:inkscape="http://www.inkscape.org/namespaces/inkscape"
   xmlns:sodipodi="http://sodipodi.sourceforge.net/DTD/sodipodi-0.dtd"
   xmlns="http://www.w3.org/2000/svg"
   xmlns:svg="http://www.w3.org/2000/svg"><defs
     id="defs33" /><sodipodi:namedview
     id="namedview31"
     pagecolor="#ffffff"
     bordercolor="#000000"
     borderopacity="0.25"
     inkscape:showpageshadow="2"
     inkscape:pageopacity="0.0"
     inkscape:pagecheckerboard="0"
     inkscape:deskcolor="#d1d1d1" /><title
     id="title2" /><desc
     id="desc4" /><g
     id="g28"><circle
       cx="16"
       cy="16"
       fill="#F2B035"
       r="9"
       id="circle6" /><g
       id="g26"><path
         d="M16,26c-5.514,0-10-4.486-10-10S10.486,6,16,6s10,4.486,10,10S21.514,26,16,26z M16,8    c-4.411,0-8,3.589-8,8s3.589,8,8,8s8-3.589,8-8S20.411,8,16,8z"
         fill="#1A1A1A"
         id="path8" /><rect
         fill="#1A1A1A"
         height="4"
         width="2"
         x="15"
         id="rect10" /><rect
         fill="#1A1A1A"
         height="4"
         transform="matrix(0.7071 -0.7071 0.7071 0.7071 -2.5269 6.1006)"
         width="2"
         x="5.101"
         y="4.101"
         id="rect12" /><rect
         fill="#1A1A1A"
         height="2"
         width="4"
         y="15"
         id="rect14" /><rect
         fill="#1A1A1A"
         height="2"
         transform="matrix(0.7071 -0.7071 0.7071 0.7071 -16.5268 11.8995)"
         width="4"
         x="4.101"
         y="24.9"
         id="rect16" /><rect
         fill="#1A1A1A"
         height="4"
         width="2"
         x="15"
         y="28"
         id="rect18" /><rect
         fill="#1A1A1A"
         height="4"
         transform="matrix(0.7071 -0.7071 0.7071 0.7071 -10.7279 25.8994)"
         width="2"
         x="24.9"
         y="23.9"
         id="rect20" /><rect
         fill="#1A1A1A"
         height="2"
         width="4"
         x="28"
         y="15"
         id="rect22" /><rect
         fill="#1A1A1A"
         height="2"
         transform="matrix(0.7071 -0.7071 0.7071 0.7071 3.272 20.1005)"
         width="4"
         x="23.9"
         y="5.101"
         id="rect24" /></g></g></svg>
